<?xml version="1.0" encoding="UTF-8"?>
<svg width="752pt" height="752pt" version="1.1" viewBox="0 0 752 752" xmlns="http://www.w3.org/2000/svg">
 <g>
  <path d="m542.78 324.21c11.566-7.918 29.789-22.41 24.078-31.867-7.3125-12.113-27.707 27.16-32.047 35.828-4.1016-0.55859-6.8164-0.75-6.8164-0.75l0.21484 0.16797h0.003907c-23.004-1.7266-45.805 5.3789-63.758 19.863-10.301 9.2109-19.48 19.605-27.348 30.965-1.8164 2.418-3.6289 4.8281-5.4648 7.2109v0.003907c-10.172 13.184-21.191 25.691-32.992 37.441 11.453-27.641 20.781-56.109 27.914-85.164 0.94141-3.7031 1.8555-7.418 2.7734-11.137 0.57031-2.3125 1.1484-4.6289 1.7266-6.957 15.344-2.5352 54.664-10.051 42.738-18.809-10.527-7.7305-30.75 5.6055-41.488 13.883 3.7539-16.07 8.9336-31.773 15.473-46.926 7.3047-15.973 20.32-36.668 41.316-48.891 2.7891 7.8281 8.0352 14.047 13.656 8.3789h0.003907c1.5469-1.7344 2.6641-3.8047 3.2695-6.0508 0.47656-1.4805 0.875-2.9844 1.1914-4.5117 0.69531-2.7695 0.74609-5.6641 0.14062-8.457-0.35156-1.6641-1.3203-3.1289-2.7109-4.1016-2.6445-1.6211-6.1992-0.26953-9.0977-1.3672-1.8242-0.6875-3.4805-2.3438-5.3867-1.9453-3.2695 0.68359-3.7461 6.5938-2.4805 12.863-22.859 12.785-36.754 34.996-44.516 51.969v0.007812c-5.9648 13.629-10.758 27.746-14.324 42.191 0.18359-14.5-1.9023-34.344-14.508-35.785-16.988-1.9453 4.5117 36.02 11.469 47.652l-0.085938 0.34375c-0.32422 0.28516-0.53516 0.47266-0.53516 0.47266l0.43359-0.0625c-0.40625 1.6328-0.8125 3.2656-1.2148 4.8906-0.92188 3.707-1.8359 7.4102-2.7734 11.105l0.003907-0.003906c-7.9492 32.816-18.871 64.848-32.625 95.688-21.914 20.398-46.117 38.188-72.133 53.004 7.2812-12.543 19.848-38.141 6.7734-46.66-14.777-9.6328-12.605 34.828-11.531 49.312-7.8516 4.3203-15.84 8.4023-23.98 12.16-44.535 20.562-83.055 25.547-114.48 14.82l-1.3984 4.1094c32.512 11.094 72.109 6.0508 117.7-14.992v0.003906c34.172-15.824 65.871-36.516 94.109-61.43-7.8086 15.898-16.898 31.137-27.18 45.566-11.023 15.078-23.043 29.406-35.977 42.883-22.875 24.344-50.922 49.98-85.461 55.523l0.80078 5.0117c36.051-5.7812 64.895-32.086 88.359-57.059 13.09-13.641 25.25-28.141 36.406-43.402 12.852-18.078 23.91-37.371 33.016-57.598 5.5742-5.2617 10.992-10.688 16.246-16.277 12.289 0.64844 69.461 2.9688 56.93-10.961-11.195-12.441-42.121 1.8008-54.242 8.1055 7.7461-8.3984 15.117-17.129 22.105-26.195 1.8516-2.3984 3.6719-4.8281 5.5-7.2578l0.003907 0.003906c7.668-11.078 16.609-21.223 26.637-30.223 19.121-15.406 43.91-21.902 68.129-17.863 13.312 9.7227 40.012 27.789 38.277 14.809-1.043-7.8164-10.508-12.719-20.543-15.746 12.059-0.089844 24.945-2.4961 26.531-12.125 2.125-12.91-21.895-2.9727-36.828 4.3359z"/>
  <path d="m495.13 196.41c3.1562 2.8867 8.2773 0.75781 12.414 1.8359 4.1758 1.0859 8.9062 1.9453 7.6172 9.6094h0.003907c-0.72656 5.8555-1.0312 11.758-0.90625 17.66-0.003907 1.375 0.74219 2.6484 1.9453 3.3164s2.6719 0.63281 3.8398-0.097656c3.168-2.1172 5.2734-5.3633 10.379-5.4219 2.0195 0.26953 4.0469-0.39062 5.5195-1.7891 2.4766-3.293-2.2852-8.5352 0.10938-11.887 0.96094-1.3438 2.7266-1.7812 4.1172-2.668 4.5312-2.8945 3.9609-10.203 0.26953-14.109v-0.003906c-4.0938-3.5312-9.1289-5.7891-14.492-6.4961 1.3164-3.8164-1.9805-7.7031-5.5-9.6836h0.003906c-5.9219-3.4805-13.195-3.7695-19.375-0.76562-2.9883 1.5781-5.3789 4.0977-6.8047 7.1641-1.4258 3.0664-1.8086 6.5156-1.0859 9.8203 0.30859 1.332 0.98047 2.5469 1.9453 3.5156z"/>
 </g>
</svg>
