<?xml version="1.0" encoding="UTF-8"?>
<svg width="752pt" height="752pt" version="1.1" viewBox="0 0 752 752" xmlns="http://www.w3.org/2000/svg">
 <g>
  <path d="m331.6 316.8c0 44.953-36.441 81.395-81.395 81.395s-81.398-36.441-81.398-81.395c0-44.953 36.445-81.398 81.398-81.398s81.395 36.445 81.395 81.398"/>
  <path d="m272.41 583.19h207.19c4.0703 0 7.3984-3.3281 7.3984-7.3984 0-4.0703-3.3281-7.3984-7.3984-7.3984h-207.19c-4.0703 0-7.3984 3.3281-7.3984 7.3984 0 4.0703 3.3281 7.3984 7.3984 7.3984z"/>
  <path d="m509.2 375.63c-2.4414 0.14844-4.8828 0.37109-7.3984 0.37109s-4.957-0.22266-7.3984-0.37109v15.168c0 8.1406-6.6602 14.801-14.801 14.801h-88.797c-4.0703 0-7.3984-3.3281-7.3984-7.3984v-52.094c-2.4414 0.14844-4.957 0.29688-7.3984 0.29688s-4.957-0.14844-7.3984-0.29688v96.492c0 4.0703-3.3281 7.3984-7.3984 7.3984h-88.797c-8.1406 0-14.801-6.6602-14.801-14.801v-22.57c-2.4414 0.14844-4.8828 0.37109-7.3984 0.37109-2.5156 0-4.957-0.22266-7.3984-0.37109v29.969c0 12.211 9.9883 22.199 22.199 22.199h96.195c4.0703 0 7.3984 3.3281 7.3984 7.3984v81.398h14.801v-125.8c0-4.0703 3.3281-7.3984 7.3984-7.3984h96.195c12.211 0 22.199-9.9883 22.199-22.199v-22.57z"/>
  <path d="m346.4 316.8c0 3.0352-0.14844 5.9922-0.44531 8.8789 5.2539 2.1445 10.73 3.8477 16.426 4.7344 9.1758 1.5547 18.129 1.5547 27.156 0 9.1016-1.4805 17.684-4.5156 25.676-8.9531-6.0664-12.578-9.6211-26.715-9.6211-41.66 0-30.781 14.652-58.234 37.219-75.848-15.168-21.754-40.105-35.148-66.82-35.148-38.699 0-71.258 26.566-79.398 63.785 29.672 16.352 49.801 47.949 49.801 84.207z"/>
  <path d="m583.19 279.8c0 44.953-36.441 81.398-81.395 81.398s-81.398-36.445-81.398-81.398c0-44.953 36.445-81.395 81.398-81.395s81.395 36.441 81.395 81.395"/>
 </g>
</svg>
