<?xml version="1.0" encoding="UTF-8"?>
<svg width="752pt" height="752pt" version="1.1" viewBox="0 0 752 752" xmlns="http://www.w3.org/2000/svg">
 <path d="m564.35 299.39c8.1719-7.3516 21.105 0.45312 30.199-5.8672 12.027-7.9883-0.375-24.648-11.871-19.797 0.90625-7.7617-4.5586-15.738-13.961-12.656-11.852 5.3984-9.8516 22.195-9.1523 33-15.051 31.051-58.113 38.594-88.996 48.434 11.047-14.547 15.594-19.785 35.988-18.426 24.996 2.0508 32.531-35.555 4.6055-35.812 8.0938-33.562-52.25-6.7266-34.266 39.945-11.609 21.223-36.277 20.164-57.016 26.074 7.0625-9.0586 42.422-29.891 50.855-44.875 5.4531-8.1367 5.2344-27.582-8.7305-24.453-2.8867-37.977-54.172-23.293-38.078 20.445 15.027 50.871-33.41 52.801-64.609 71.328 12.449-23.98-3.4375-38.941 30.82-45.852l-0.007813 0.003906c5.9648-1.0859 11.316-4.3359 15.031-9.1211 16.883-21.195-13.633-48.621-33.023-30.059-17-17.723-52.582 20.172-11.695 46.395 2.6875 1.6719-1.0977 39.723-16.809 48.926-19.641 12.426-34.789 30.816-43.223 52.477 0.70703-7.6719 0.16016-15.406-1.6211-22.902-3.8789-15.711 18-41.711 20.73-41.035 42.043 9.7734 44.113-36.375 22.289-36.211-0.20312-23.855-36.582-26.281-39.613-2.3906v-0.003906c-0.74219 5.3359 0.50781 10.758 3.5117 15.227 16.84 26.098-2.5352 25.258-10.086 48.051-7.5469-31.355-39.387-61.145 3.0156-81.742 37.258-18.098 17.727-62.25-8.2461-40.543-6.668-10.832-19.184 1.082-20.984 9.6016-4.3125 14.66 4.3477 50.09 2.957 60.203-9.0938-16.867-25.062-31.922-18.746-52.469 40.867-17.488 20.543-72.547 4.1914-46.586-17.477-17.621-36.637 10.363-19.949 25.137 13.602 12.039 12.992 18.285 10.582 34.34-12.883-25.766-34.781-57.863-24.34-86.695 7.3125-6.2539 19.246-15.395 15.336-26.289-3.8672-7.8984-12.336-6.4336-16.715-1.043-4.0352-10.324-22.336-7.8945-19.965 4.7148 1.6133 9.707 14.602 13.105 14.988 22.867-3.5469 22.965 4.2617 43.742 13.926 64.012-2.457-3.1094-20.629-25.609-23.258-37.207 0.007813-4.5078 4.4453-9.6914 6.0664-13.477 7.9375-13.898-12.762-26.445-16.406-8.4844-14.461-17.113-39.879 3.7305-16.871 15.797 18.258 9.5742 25.141 8.9922 33.637 29.5-4.7188-3.8672-11.121-4.7734-15.852-8.4297-37.172-38.832-70.941 14.414-34.945 28.742 10.688 14.512 18.727 2.0742 22.043-10.699 9.4844-36.535 57.816 25.508 56.34 25.48-37.703-43.848-76.77 11.848-34.543 26.539 7.1133 11.715 20.93 2.5352 21.051-8.9219h0.003906c-0.070312-4.9805 2.0352-9.7383 5.7656-13.039 15.723-10.691 60.023 85.199 59.344 102.14-4.207-9.4531-13.957-14.844-18.852-23.422-2.8594-9.3906-8.1719-17.844-15.387-24.496s-16.074-11.262-25.66-13.348c-21.461-4.3008-34.051 23.574-12.012 31.523-15.25 17.844 8.2578 41.289 27.051 26.91 6.5977-5.0508 12.918-13.137 21.535-14.215 41.172 19.727 20.879 67.172 8.5117 98.578 1.2578-21.062-17.82-21.035-16.668-32.008 1.4531-13.844 7.4727-29.137-4.5-39.145l-0.003906-0.003906c-5.1484-4.2109-11.898-5.9219-18.43-4.6758-6.5312 1.2461-12.176 5.3203-15.41 11.129-30.625 3.4062-20.91 43.562 5.4375 45.844 16.215 1.4023 31.387-12.988 41.98 5.4688 12.012 28.016-16.965 49.059-12.418 77.395 0.20312 2.7734 4.5586 2.8945 4.3516 0.10156-1.9453-26.203 14.582-48.926 23.746-72.332 0.73438-1.8711 1.4609-3.7578 2.1836-5.6562 3.3086-8.7266 5.8672-13.926 18.145-17.617 24.473-7.3594 27.539 11.012 41.398 22.984 22.523 19.453 63.191-1.2695 41.895-28.633l0.003906-0.003906c2.1406-7.168 1-14.918-3.125-21.164-4.1211-6.2461-10.801-10.34-18.234-11.188-13.895-1.4297-22.281 7.5-29.277 17.918-4.0781 6.0664-6.6719 7.0781-15.746 11.008-4.168 1.3945-8.4609 2.3906-12.82 2.9727-11.75 2.3672-13.586 2.4961-13.586 2.4961s25.5-89.297 83.602-66.125c5.8945 7.793 4.0898 19.27 5.4453 28.52 2.4531 26.516 40.512 26.988 42.926 0.68359 23.707 11.523 36.297-20.504 15.984-34.43-9.2109-6.0898-19.879-9.6133-30.906-10.211-11.027-0.59375-22.012 1.7617-31.824 6.8281-11.188 0.72266-16.355-2.3203-33.094 2.6133 13.129-13.848 124.62-52.836 128.34-31.766 0.25391 5.5938-1.9297 11.02-5.9805 14.883-9.207 9.0234-5.6953 27.438 9.332 23.977 44.992 22.512 59.227-52.699-5.7188-48.676-1.1797-1.1719 83.035-12.926 64.766 25.418-8.9219 11.863-11.41 28.941 8.6797 26.168 39.809 17.77 56.227-51.254-4.2617-50.734-6.6641-0.94141-12.418-5.3945-19.238-6.1602 23.203-9.25 28.406-4.0195 50.188 3.9609 28.09 8.0898 24.637-27.773-0.50391-26 11.617-17.035-14.75-23.875-19.723-6.5664-1.7773 4.2734-2.4766 11.922-6.1016 15.469-11.414 6.9844-43.82 9.9961-48.254 10.457 23.926-8.125 46.805-18.137 62.535-39.027zm17.691-20.137c7.5312-5.1445 18.145 5.3438 8.793 10.832-3.875 2.1836-18.965 2.8359-19.457 2.8203 0.17578-0.03125 11.246-2.2891 13.812-3.1797 7.9609-2.8555 3.9297-10.578-3.1484-10.473zm-4.7852-3.4648c-4.0664-11.449-11.066-3.7969-10.875 5.4609 0.16406 8.0234-0.51172 10.602-1.2266 11.641-6.5898-32.562 16.555-33.734 12.102-17.102zm-70.754 43.391c-6.9141 0.078125-15.031-1.3672-21.387 1.1055 5.6836-6.9219 15.898-3.5625 23.371-6.5781 4.3555-1.4688 7.2656-5.582 7.1992-10.18-0.066406-4.5977-3.0977-8.625-7.4961-9.9609 23.504-3.7422 19.258 27.332-1.6875 25.613zm-4-28.766c0.30859-6.1484-7.4727-5.6758-10.906-2.2695-8.3047 8.2344-10.973 23.613-11.75 33.441-8.8516-48.906 44.473-51.117 22.656-31.172zm-33.688 3.0664c5.3242 10.395-6.4688 20.809-14.652 27.031-5.4336 4.1953-17.312 13.035-17.742 13.395 1.7109-7.3477 27.617-37.062 29.016-43.57l0.003906 0.003907c1.4922 0.57422 2.6992 1.6992 3.3789 3.1445zm-12.926-5.3125c1.4844-1.5742-18.938-7.8047-19.598 6.3672-0.70312 15.062 5.0312 19.184-4.2305 32.871 0.53516-4.3398 0.25-8.7422-0.84766-12.977-13.734-71.93 36.293-38.598 24.676-26.262zm-62.953 33.582c17.57-13.676-4.1992-31.449-20.676-23.266 13.434-20.055 46.004 1.9727 29.656 20.996-7.2422 8.4609-24.07 7.1445-33.277 12.828 6.8672-6.0156 17.215-5.0469 24.297-10.559zm-26.137-23.039v-0.003906c-3.7734-1.7969-8.2227-1.4336-11.652 0.95312-3.4336 2.3867-5.3203 6.4336-4.9453 10.598 0.027343 7.9609 12.102 21.574 12.102 22.918-43.164-30.559 14.062-53.547 4.4961-34.469zm-45.297 72.613c0.85547-0.83203 17.141-1.4531 22.098-6.5039 2.9102-2.3281 4.332-6.0469 3.7266-9.7227-0.60938-3.6797-3.1602-6.7383-6.6641-8.0039 6.2188-17.922 27.059 32.77-19.16 24.23zm-15.133-32.816c1.9805-22.199 35.492-16.02 31.051 4.9688-5.0039-15.566-28.879-18.488-27.633 1.2617 1.2578 7.8789 7.9141 13.918 8.3398 22.016-2.0898-9.3906-12.656-18.391-11.758-28.246zm-78.328-129.32c5.7422-5.8945 6.5469-14.82-3.2656-10.309 7.832-13.145 21.434 2.3164-3.3867 18.309 1.8555-2.9453 4.0898-5.6367 6.6523-8zm-17.062-6.7227c1.0234 2.1875 6.4492 10.637 6.5391 10.77-4.0273-4.2422-7.4766-8.9961-10.266-14.141-2.3047-9.3555 10.953-9.0977 12.348-1.1133-4.3203-4.5703-11.738-2.3516-8.6211 4.4844zm-18.02 40.918c-26.391-7.7852-16.523-27.066 4.7383-13.184-37.223-4.4883-1.7461 13.348 5.4766 17.684-3.3633-1.582-6.7891-3.0156-10.215-4.5zm12.098 2.0781c1.5469-7.1289 9.3672-20.652-5.0938-16.977 3.1328-6.2734 9.5078-6.1328 10.641-4.3906 3.7461 6.9648-3.6758 14.758-5.5469 21.367zm-35.512 46.973c-2.5312-2.25-3.3633-5.8555-2.0781-8.9883 0.84766 3.1641 4.5898 8.5742 8.8008 5.4688 6.6484-4.9023 4.4414-16.566 13.664-19.555-10.211 4.0977-8.2852 32.496-20.387 23.074zm0.24609-31.461c-7.043 2.6797-11.57 11.438-6.7188 17.949 1.4609 2.543-1 5.5234-0.28906 8.3711-12.34-4.7109-12.078-23.621-1.2383-30.656 10.867-7.0508 22.586-0.42969 31.469 7.2383-0.20703-0.011719-14.551-6.6797-23.223-2.9023zm54.438 65.227c-0.92969 5.707-6.5117 11.871-12.008 6.0352-1.6719-1.7188-2.6992-3.9648-2.9023-6.3555 13.688 10.727 11.203-15.211 21.895-17.766-3.8398 3.6602-6.043 12.301-6.9844 18.086zm-18.988-3.7266c-0.32031 2.0508-0.1875 4.1406 0.39062 6.1328-13.93-4.2109-14.93-24.695-2.2422-31.793 9.8438-5.5078 21.305 0.09375 29.758 7.2109-29.391-14.793-45.652 11.863-27.906 18.449zm64.773-61.391c0.039062-4.2969-4.4844-9.5469-8.207-5.5352-0.82422-26.258 30.828 9.0664-5.8008 33.75 5.7773-6.5898 13.914-17.824 14.008-28.215zm-29 9.75c-14.078-12.273 3.0742-34.242 15.266-16.957h-0.003906c-3.5781-1.9688-8.0195-1.4023-10.992 1.4062-2.9688 2.8047-3.7812 7.2109-2.0156 10.895 2.7109 6.6289 11.184 11.051 10.301 18.961-2.3672-5.582-8.3203-9.8555-12.555-14.305zm63.125 29.031c8.168-9.6055-0.10938-22.227-11.996-16.031 9.6992-21.613 50.273 9.5625-6.7227 38.422h-0.003907c-3.0039 2.0117-5.4375 4.7734-7.0625 8.0078 2.9727-14.387 16.176-21.059 25.785-30.398zm-29.059 24.723c-0.035156-0.49609-1.7695-13.539-2.4688-19.602-1.1133-9.0664-0.40625-20.723 8.1289-26.09 1.6523-0.64453 3.5117-0.48438 5.0312 0.43359s2.5234 2.4922 2.7188 4.2578c-22.328-7.1992-8.8203 33.832-13.41 41zm-18.348 74.203c-22.133 27.527-48.664 1.0352-27.879-14.402-4.4766 10.68 4.6367 26.285 16.547 18.035 6.5547-5.0234 13.668-10.801 22.496-9.6523-4.0938 1.2227-7.8906 3.2734-11.164 6.0195zm-28.621-18.68c-0.41016-0.28125-0.97656 0.15625-1.4688 0.24609-11.039-0.52344-16.742-15.559-6.6602-21.395 19.16-11.094 42.859 10.539 49.703 28.645-43.344-52.355-57.535-18.375-41.574-7.4961zm8.0664 90.637c-22.324 1.9414-36.641-23.355-12.023-35.867 6.8633-3.4883-7.707 12.113-2.8281 21.32 4.2656 8.043 21.398 10.211 31.887 10.66-6.1953-0.26172-10.863 3.3516-17.035 3.8906zm19.039-16.582c3.0195-26.719-24.93-21.309-25.555-22.582 2.6172-4.9883 7.6133-8.2852 13.23-8.7305 5.6172-0.44531 11.07 2.0234 14.441 6.543 9.7227 12.605-5.2383 52.379-2.1172 24.773zm110.64-23.676v0.003906c6.6094-0.28906 12.949 2.6523 16.996 7.8867 4.0469 5.2383 5.2969 12.113 3.3477 18.438-14.996-32.773-47.902-0.80469-47.902-0.80469 0.003907 0.003907 9.7656-23.461 27.559-25.52zm4.4805 55.469c19.652-3.4258 15.75-23.965 17.145-24.414 17.531 25.648-23.828 39.066-38.355 18.461l-0.003906 0.003906c-4.9453-4.9648-9.0234-10.723-12.062-17.039 11.961 5.3398 18.539 25.559 33.277 22.992zm81.617-80.641c3.207 12.707-13.391 19.914-22.477 11.422-0.30859-0.46484-0.63281-0.92188-0.95312-1.3789 28.996 10.648 37.555-33.785-38.68-27.633 19.969-8.6914 56.012-6.5664 62.109 17.59zm-54.988 13.625c2.6953 16.078 22.434 11.176 27.527-0.81641 3.8711 28.871-33.805 28.57-33.496-11.172l0.003906-0.003907c-0.089844-4.8359-1.4375-9.5664-3.9102-13.723 7.8555 6.2148 8.7812 16.484 9.875 25.715zm118.12-49.035c4.2383 15.805-13.062 31.074-27.391 23.152 2.0586-1.0977 3.8516-2.6367 5.25-4.5 19.242 9.1328 27.965-24.902-7.0273-36.98 12.371 1.2266 25.883 6.0703 29.168 18.328zm-30.953-13.559c6.332 10.625-16.531 28.98 2.8633 31.598-2.0859 1.7109-4.7031 2.6484-7.4023 2.6484-9.0195 0.15234-8.0703-8.9375-4.5586-14.418 4.9375-5.5586 8.1055-12.461 9.0977-19.828zm96.184 15.754c2.8398 14.262-12.203 29.316-25.684 23.066 2.8555-1.6641 3.3281-5.9844 6.5234-6.8047 9.0586-1.2031 12.562-11.723 9.1953-19.504-3.7617-9.957-20.395-16.289-20.57-16.445 13.148 1.1406 27.688 5.3867 30.535 19.684zm-32.539-12.898c4.832 9.7812-6.1406 17.137-5.0391 26.367 0.91016 5.8203 8.1016 4.6055 11.316 2.8008h0.003906c-1.6094 3.4141-5.1055 5.5312-8.875 5.3789-16.879-3.6094 7.3086-23.098 2.5938-34.547zm20.266-52.195c2.293-0.45703 7.4102 4.5703 4.8125 12.023-8.3906-14.539-13.152 2.3789-17.684 9.2188 3.8633-6.6992 4.3203-18.797 12.871-21.242zm5.2109 15.195c27.883 6.2422 20.086 29.336-6.9102 14.168-3.8867-1.5938-7.7305-3.2344-11.648-4.7031 9.1719 2.418 51.398 17.02 18.559-9.4688z"/>
</svg>
