<?xml version="1.0" encoding="UTF-8"?>
<svg width="752pt" height="752pt" version="1.1" viewBox="0 0 752 752" xmlns="http://www.w3.org/2000/svg">
 <g>
  <path d="m316.8 272.41c0 8.1406 6.6602 14.801 14.801 14.801s14.801-6.6602 14.801-14.801c0-4.0703 3.3281-7.3984 7.3984-7.3984 4.0703 0 7.3984 3.3281 7.3984 7.3984 0 8.1406 6.6602 14.801 14.801 14.801s14.801-6.6602 14.801-14.801c0-4.0703 3.3281-7.3984 7.3984-7.3984s7.3984 3.3281 7.3984 7.3984c0 8.1406 6.6602 14.801 14.801 14.801s14.801-6.6602 14.801-14.801v-44.398c0-32.633-26.566-59.199-59.199-59.199-32.633 0-59.199 26.566-59.199 59.199z"/>
  <path d="m501.8 302c-32.633 0-59.199 26.566-59.199 59.199v44.398c0 8.1406 6.6602 14.801 14.801 14.801 8.1406 0 14.801-6.6602 14.801-14.801 0-4.0703 3.3281-7.3984 7.3984-7.3984 4.0703 0 7.3984 3.3281 7.3984 7.3984 0 8.1406 6.6602 14.801 14.801 14.801s14.801-6.6602 14.801-14.801c0-4.0703 3.3281-7.3984 7.3984-7.3984 4.0703 0 7.3984 3.3281 7.3984 7.3984 0 8.1406 6.6602 14.801 14.801 14.801 8.1406 0 14.801-6.6602 14.801-14.801v-44.398c0-32.633-26.566-59.199-59.199-59.199z"/>
  <path d="m272.41 583.19h207.19c4.0703 0 7.3984-3.3281 7.3984-7.3984 0-4.0703-3.3281-7.3984-7.3984-7.3984h-207.19c-4.0703 0-7.3984 3.3281-7.3984 7.3984 0 4.0703 3.3281 7.3984 7.3984 7.3984z"/>
  <path d="m250.21 450c8.1406 0 14.801-6.6602 14.801-14.801 0-4.0703 3.3281-7.3984 7.3984-7.3984s7.3984 3.3281 7.3984 7.3984c0 8.1406 6.6602 14.801 14.801 14.801s14.801-6.6602 14.801-14.801v-44.398c0-32.633-26.566-59.199-59.199-59.199-32.633 0-59.199 26.566-59.199 59.199v44.398c0 8.1406 6.6602 14.801 14.801 14.801s14.801-6.6602 14.801-14.801c0-4.0703 3.3281-7.3984 7.3984-7.3984 4.0703 0 7.3984 3.3281 7.3984 7.3984 0 8.1406 6.6602 14.801 14.801 14.801z"/>
  <path d="m509.2 434.16c-2.3672 0.59375-4.8086 1.0352-7.3984 1.0352s-5.0312-0.44531-7.3984-1.0352v15.836c0 8.1406-6.6602 14.801-14.801 14.801h-88.797c-4.0703 0-7.3984-3.3281-7.3984-7.3984v-156.43c-2.3672 0.59375-4.8086 1.0352-7.3984 1.0352s-5.0312-0.44531-7.3984-1.0352v200.83c0 4.0703-3.3281 7.3984-7.3984 7.3984h-88.797c-8.1406 0-14.801-6.6602-14.801-14.801v-30.637c-2.3672 0.59375-4.8086 1.0352-7.3984 1.0352-2.5898 0-5.0312-0.44531-7.3984-1.0352v38.035c0 12.211 9.9883 22.199 22.199 22.199h96.195c4.0703 0 7.3984 3.3281 7.3984 7.3984v22.199h14.801v-66.598c0-4.0703 3.3281-7.3984 7.3984-7.3984h96.195c12.211 0 22.199-9.9883 22.199-22.199v-23.234z"/>
 </g>
</svg>
