<?xml version="1.0" encoding="UTF-8"?>
<svg width="752pt" height="752pt" version="1.1" viewBox="0 0 752 752" xmlns="http://www.w3.org/2000/svg">
 <path d="m582.9 342.85c0.22266-1.2578 0.29687-2.5898 0.29687-3.8477 0-16.574-13.91-29.895-30.34-29.598-3.4023-16.871-18.352-29.598-36.258-29.598s-32.855 12.727-36.258 29.598c-16.574-0.29688-30.34 13.023-30.34 29.598 0 1.2578 0.074219 2.5898 0.29688 3.8477-9.1758 5.1055-15.094 14.875-15.094 25.75 0 16.352 13.246 29.598 29.598 29.598h29.598v14.801h-88.797v-111h37c24.492 0 44.398-19.906 44.398-44.398 0-16.059-8.582-30.637-22.199-38.477-0.8125-19.684-17.094-35.52-37-35.52-1.6289 0-3.2578 0.074219-4.8086 0.29688-8.4375-18.129-26.566-29.895-46.988-29.895s-38.551 11.766-46.988 29.895c-1.5547-0.22266-3.1836-0.29688-4.8086-0.29688-19.906 0-36.184 15.836-37 35.52-13.617 7.8438-22.199 22.422-22.199 38.477 0 24.492 19.906 44.398 44.398 44.398h37v111h-88.797v-14.801h29.598c16.352 0 29.598-13.246 29.598-29.598 0-10.879-5.918-20.645-15.094-25.75 0.22266-1.2578 0.29687-2.5898 0.29687-3.8477 0-16.574-14.059-30.043-30.34-29.598-3.4023-16.871-18.352-29.598-36.258-29.598s-32.855 12.727-36.258 29.598h-0.73828c-16.352 0-29.598 13.246-29.598 29.598 0 1.2578 0.074219 2.5898 0.29688 3.8477-9.1758 5.1055-15.094 14.875-15.094 25.75 0 16.352 13.246 29.598 29.598 29.598h29.598v22.199c0 20.422 16.574 37 37 37h96.195v37.441c-13.023 1.6289-25.012 7.4727-34.484 16.871-11.172 11.172-17.316 26.047-17.316 41.883h-22.199c-12.211 0-22.199 9.9883-22.199 22.199 0 12.211 9.9883 22.199 22.199 22.199h207.19c12.211 0 22.199-9.9883 22.199-22.199 0-12.211-9.9883-22.199-22.199-22.199h-22.199c0-15.836-6.1406-30.707-17.316-41.883-9.4727-9.3984-21.461-15.242-34.484-16.871v-37.441h96.195c20.422 0 37-16.574 37-37v-22.199h29.598c16.352 0 29.598-13.246 29.598-29.598 0-10.879-5.918-20.645-15.094-25.75zm-273.49-55.645c-16.352 0-29.598-13.246-29.598-29.598 0-11.84 7.0312-22.496 17.832-27.156 2.9609-1.2578 4.7344-4.293 4.5156-7.4727-0.074219-0.73828-0.14844-1.6289-0.14844-2.3672 0-12.211 9.9883-22.199 22.199-22.199 2.4414 0 4.8086 0.37109 6.957 1.1094 1.9258 0.66406 3.9961 0.59375 5.7734-0.37109 1.7773-0.88672 3.1094-2.4414 3.6992-4.3672 4.8086-15.316 19.312-25.973 35.371-25.973 16.059 0 30.562 10.656 35.371 25.973 0.59375 1.9258 1.9258 3.4766 3.6992 4.3672 1.7773 0.96094 3.9219 1.0352 5.7734 0.37109 2.1445-0.73828 4.5156-1.1094 6.957-1.1094 12.211 0 22.199 9.9883 22.199 22.199 0 0.8125-0.074218 1.6289-0.14844 3.0352 0 2.9609 1.7773 5.625 4.5156 6.8086 10.805 4.6602 17.832 15.316 17.832 27.156 0 16.352-13.246 29.598-29.598 29.598l-133.21-0.007813zm-125.8 96.195c-8.1406 0-14.801-6.6602-14.801-14.801 0-6.6602 4.5156-12.504 10.953-14.207 1.9961-0.59375 3.7734-1.9961 4.7344-3.9219 0.88672-1.8516 0.96094-4.0703 0.14844-6.0664-0.66406-1.7031-1.0352-3.5508-1.0352-5.4023 0-8.1406 6.6602-14.801 14.801-14.801 1.7773 0 3.4023 0.29688 4.8086 0.8125 2.4414 0.96094 5.2539 0.44531 7.3242-1.1836 2.0703-1.7031 3.1094-4.4414 2.6641-7.0312 0-12.211 9.9883-22.199 22.199-22.199s22.199 9.9883 22.199 22.348c-0.37109 2.5898 0.59375 5.2539 2.6641 6.957 2.0703 1.6289 4.8828 2.0703 7.3242 1.1094 1.4062-0.51953 3.0352-0.8125 4.8086-0.8125 8.1406 0 14.801 6.6602 14.801 14.801 0 1.8516-0.37109 3.6992-1.0352 5.4023-0.8125 1.9961-0.73828 4.2188 0.14844 6.0664 0.96094 1.9258 2.7383 3.3281 4.7344 3.9219 6.4375 1.7031 10.953 7.5469 10.953 14.207 0 8.1406-6.6602 14.801-14.801 14.801zm295.99 184.99c4.0703 0 7.3984 3.3281 7.3984 7.3984 0 4.0703-3.3281 7.3984-7.3984 7.3984h-207.19c-4.0703 0-7.3984-3.3281-7.3984-7.3984 0-4.0703 3.3281-7.3984 7.3984-7.3984zm-147.99-14.801c0-9.6211 6.2148-17.906 14.801-20.941v20.941zm73.996 0v-20.941c8.582 3.0352 14.801 11.32 14.801 20.941zm118.39-133.2c0 12.211-9.9883 22.199-22.199 22.199h-103.6c-4.0703 0-7.3984 3.3281-7.3984 7.3984v51.797c0 4.0703 3.3281 7.3984 7.3984 7.3984 11.84 0 23.012 4.5859 31.375 13.023 8.4375 8.3633 13.023 19.535 13.023 31.375h-7.3984c0-20.422-16.574-37-37-37-4.0703 0-7.3984 3.3281-7.3984 7.3984v29.598h-29.598v-29.598c0-4.0703-3.3281-7.3984-7.3984-7.3984-20.422 0-37 16.574-37 37h-7.3984c0-11.84 4.5859-23.012 13.023-31.375 8.3633-8.4375 19.535-13.023 31.375-13.023 4.0703 0 7.3984-3.3281 7.3984-7.3984v-51.797c0-4.0703-3.3281-7.3984-7.3984-7.3984h-103.6c-12.211 0-22.199-9.9883-22.199-22.199v-22.199h14.801v14.801c0 8.1406 6.6602 14.801 14.801 14.801h96.195c4.0703 0 7.3984-3.3281 7.3984-7.3984v-118.4h29.598v118.39c0 4.0703 3.3281 7.3984 7.3984 7.3984h96.195c8.1406 0 14.801-6.6602 14.801-14.801v-14.801h14.801zm44.398-37h-103.6c-8.1406 0-14.801-6.6602-14.801-14.801 0-6.6602 4.5156-12.504 10.953-14.207 1.9961-0.59375 3.7734-1.9961 4.7344-3.9219 0.88672-1.8516 0.96094-4.0703 0.14844-6.0664-0.66406-1.7031-1.0352-3.5508-1.0352-5.4023 0-8.1406 6.6602-14.801 14.801-14.801 1.7773 0 3.4023 0.29688 4.8086 0.8125 2.4414 0.96094 5.2539 0.44531 7.3242-1.1836 2.0703-1.7031 3.1094-4.4414 2.6641-7.0312 0-12.211 9.9883-22.199 22.199-22.199s22.199 9.9883 22.199 22.348c-0.37109 2.5898 0.59375 5.2539 2.6641 6.957 2.0703 1.6289 4.8828 2.0703 7.3242 1.1094 1.4062-0.51953 3.0352-0.8125 4.8086-0.8125 8.1406 0 14.801 6.6602 14.801 14.801 0 1.8516-0.37109 3.6992-1.0352 5.4023-0.8125 1.9961-0.73828 4.2188 0.14844 6.0664 0.96094 1.9258 2.7383 3.3281 4.7344 3.9219 6.4375 1.7031 10.953 7.5469 10.953 14.207 0 8.1406-6.6602 14.801-14.801 14.801z"/>
</svg>
