<?xml version="1.0" encoding="UTF-8"?>
<svg width="752pt" height="752pt" version="1.1" viewBox="0 0 752 752" xmlns="http://www.w3.org/2000/svg">
 <path d="m518.55 290.29 53.516-98.504c3.7891-7.1055 1.4219-16.102-6.1562-19.891-7.1055-3.7891-16.102-1.4219-19.891 6.1562l-94.719 174.28c-8.5234 0.47266-17.996 0.94531-27.469 1.4219l87.613-161.96c3.7891-7.1055 1.4219-16.102-6.1562-19.891-7.1055-3.7891-16.102-1.4219-19.891 6.1562l-95.664 176.64h-13.734c-104.66 0-169.07-12.785-189.91-22.258 20.836-8.9961 85.719-22.258 189.91-22.258h10.891l16.102-29.363c-10.418 0-19.891-0.47266-26.52-0.47266-52.566 0-224.95 3.7891-224.95 51.621 0 1.8945 0.47266 3.3164 0.94531 4.7344l34.102 97.555c11.84 33.152 34.57 62.512 65.828 84.297 6.1562 4.2617 13.262 7.5781 20.836 10.418v28.414c0 9.4727 7.1055 17.996 16.574 19.418 23.68 3.3164 53.516 5.2109 86.664 5.2109 32.676 0 62.984-1.8945 86.191-5.2109 9.4727-1.4219 16.574-9.4727 16.574-19.418v-28.414c7.5781-2.8398 14.68-6.1562 20.836-10.418 31.73-22.258 54.461-51.148 66.301-84.297l34.098-96.609c0.47266-1.4219 0.94531-3.3164 0.94531-4.7344-0.46484-22.734-37.879-35.52-82.867-42.621zm-15.156 27.938c31.258 4.2617 52.094 9.9453 62.512 14.207-11.84 5.2109-38.832 11.84-79.09 16.574z"/>
</svg>
