<?xml version="1.0" encoding="UTF-8"?>
<svg width="752pt" height="752pt" version="1.1" viewBox="0 0 752 752" xmlns="http://www.w3.org/2000/svg">
 <g>
  <path d="m495.8 354.98c-24.641-14.207-53.871-16.797-80.508-7.25l127.05 73.332c-5.1055-27.898-21.902-51.871-46.543-66.078z"/>
  <path d="m390.8 346.4c0 8.1719-6.625 14.801-14.801 14.801-8.1719 0-14.797-6.6289-14.797-14.801s6.625-14.801 14.797-14.801c8.1758 0 14.801 6.6289 14.801 14.801"/>
  <path d="m369.64 291.94c4.293-15.984 4.3672-32.559 0.29688-48.395-9.3984-36.629-39.07-64.156-75.996-70.891l66.672 115.51c3.2578 0.73828 6.2891 1.9961 9.0273 3.7734z"/>
  <path d="m368.6 316.8c0-3.1836-0.96094-6.1406-2.8125-8.6562-2.4414-3.4023-6.2148-5.625-10.285-6.0664-2.5156-0.22266-5.7734 0.22266-8.3633 1.5547-1.0352 0.44531-1.8516 1.0352-2.6641 1.6289-3.4766 2.8867-5.4766 7.0312-5.4766 11.543 0 4.293 1.7773 8.2891 4.957 11.027 1.4805 1.332 3.6992 2.8125 6.7344 3.4023 3.9219-6.5117 10.285-11.395 17.832-13.32 0-0.37109 0.074218-0.73828 0.074218-1.1094z"/>
  <path d="m267.82 253.46c-26.934-6.7344-55.203-1.4805-77.918 14.207l137.04 36.777c0.59375-1.2578 1.332-2.3672 2.0703-3.4766-12.801-23.754-34.852-40.996-61.195-47.508z"/>
  <path d="m405.08 303.71c-10.434-5.2539-21.68 2.5898-21.68 13.098 0 0.37109 0.074218 0.73828 0.074218 1.1094 7.5469 1.9258 13.91 6.8086 17.832 13.32 3.0352-0.66406 5.2539-2.1445 6.7344-3.4023 3.1836-2.7383 4.957-6.7344 4.957-11.027 0-4.5156-1.9961-8.6562-5.4766-11.469-0.8125-0.66406-1.6289-1.2578-2.4414-1.6289z"/>
  <path d="m489.88 253.91c-27.527 7.3242-50.023 26.121-62.082 51.723l141.7-37.961c-16.281-11.246-35.297-17.094-54.609-17.094-8.3633 0-16.723 1.1094-25.012 3.3281z"/>
  <path d="m385.25 290.31c3.3281-1.6289 6.957-2.5898 10.879-2.8867l61.934-107.37c-33.816 6.1406-61.566 29.672-73.258 62.156 3.6992 15.836 3.8477 32.188 0.44531 48.098z"/>
  <path d="m383.4 405.6c-4.0703 0-7.3984-3.3281-7.3984-7.3984s3.3281-7.3984 7.3984-7.3984h10.434l-1.332-19.832c-4.7344 3.1836-10.434 5.0312-16.5 5.0312s-11.766-1.8516-16.5-5.0312l-4.3672 64.23h13.469c4.0703 0 7.3984 3.3281 7.3984 7.3984 0 4.0703-3.3281 7.3984-7.3984 7.3984h-14.504l-5.1055 73.996h34.41c4.0703 0 7.3984 3.3281 7.3984 7.3984 0 4.0703-3.3281 7.3984-7.3984 7.3984h-35.445l-1.0352 14.801h58.16l-4.0703-59.199h-32.41c-4.0703 0-7.3984-3.3281-7.3984-7.3984 0-4.0703 3.3281-7.3984 7.3984-7.3984h31.375l-5.1055-73.996z"/>
  <path d="m265.01 575.79c0 4.0703 3.3281 7.3984 7.3984 7.3984h207.19c4.0703 0 7.3984-3.3281 7.3984-7.3984 0-4.0703-3.3281-7.3984-7.3984-7.3984h-207.19c-4.0703 0-7.3984 3.3281-7.3984 7.3984z"/>
  <path d="m256.2 354.98c-24.641 14.207-41.438 38.184-46.543 66.078l127.05-73.332c-10.582-3.7734-21.531-5.6992-32.484-5.6992-16.574 0-33.152 4.3672-48.023 12.949z"/>
 </g>
</svg>
