<?xml version="1.0" encoding="UTF-8"?>
<svg width="752pt" height="752pt" version="1.1" viewBox="0 0 752 752" xmlns="http://www.w3.org/2000/svg">
 <g>
  <path d="m242.45 218.3c3.7891 5.2109 8.5234 9.9453 13.262 13.262 9.4727 7.5781 17.523 13.734 20.836 22.73 3.7891 8.9961 3.3164 17.996 1.4219 24.152-0.94531 3.3164-4.2617 9.4727-4.2617 9.4727s4.7344-6.1562 6.1562-8.9961c3.3164-6.1562 6.1562-16.102 3.7891-27.469-0.94531-5.6836-3.7891-11.84-7.5781-16.574-3.7891-5.2109-8.0508-9.4727-11.84-13.734-3.7891-4.2617-7.1055-8.0508-9.4727-11.84-2.3672-4.2617-4.2617-8.5234-5.2109-12.312-2.3672-8.0508-1.8945-14.68-1.8945-19.418 0.47266-4.7344 0.94531-7.5781 1.4219-9.4727 0.47266-1.8945 1.4219-3.3164 1.4219-4.2617 0.47266-0.94531 0-1.4219 0-1.4219s0-0.47266-0.94531-0.94531c-0.94922-0.47656-2.8438-0.94922-6.1602 0.94531-2.8398 1.8945-6.6289 5.6836-8.9961 11.84-1.8945 6.1562-3.3164 15.156-0.47266 26.52 1.8906 6.1562 4.7344 11.84 8.5234 17.523z"/>
  <path d="m303.07 275.6c2.8398-3.7891 5.2109-8.5234 6.6289-14.207 3.3164-10.891 2.8398-22.73 5.2109-33.152 1.8945-10.418 5.6836-20.836 9.4727-28.887 3.7891-8.5234 7.1055-14.207 9.9453-18.941 2.3672-4.7344 4.2617-8.0508 5.2109-10.418 1.8945-4.7344 0.94531-6.6289 0.94531-6.6289s-1.4219-1.4219-6.6289 0.94531c-2.3711 1.418-6.1602 3.7852-9.9492 8.0508-4.2617 4.7344-9.4727 10.891-13.734 20.836-4.2617 9.4727-7.5781 21.785-8.0508 33.625-0.94531 12.312 1.4219 23.68 0.47266 33.625-0.47266 4.7344-1.4219 8.9961-3.3164 12.785-1.8945 3.7891-4.2617 6.6289-6.1562 9.4727-1.8945 2.3672-3.7891 4.2617-5.2109 5.6836l-1.8945 1.8945s0.94531-0.47266 2.3672-1.4219c1.4219-0.94531 3.7891-2.3672 6.1562-4.7344 2.8477-1.8984 5.6875-4.7383 8.5312-8.5273z"/>
  <path d="m202.2 249.55c3.3164 2.8398 7.1055 5.2109 11.367 6.6289 4.2617 1.4219 8.5234 2.8398 12.312 3.7891 3.7891 0.94531 7.5781 1.8945 10.891 3.3164 3.3164 1.4219 6.6289 3.3164 9.4727 5.2109 5.6836 3.7891 9.9453 8.9961 12.785 12.785 2.8398 3.7891 3.7891 6.6289 3.7891 6.6289s-0.47266-2.8398-1.8945-7.5781c-1.4219-4.7344-4.2617-10.891-9.4727-17.051-2.8398-2.8398-5.6836-6.1562-9.4727-8.5234-3.7891-2.3672-8.0508-4.7344-11.84-6.1562-3.7891-1.8945-7.5781-3.3164-10.418-4.7344-2.8398-1.4219-5.6836-3.3164-7.5781-5.2109-4.2617-3.7891-7.1055-7.1055-9.4727-9.9453-2.3672-2.8398-3.7891-4.7344-5.2109-6.1562-1.4141-1.8906-2.3594-2.8398-3.3086-2.8398-0.94531-0.47266-1.4219-0.47266-1.4219-0.47266s-0.47266 0-0.94531 0.94531c-0.47266 0.47266-1.4219 1.8945-1.8945 3.7891-0.47266 2.3672-0.47266 5.6836 0.94531 9.9453 1.8984 4.2617 4.7383 10.422 11.367 15.629z"/>
  <path d="m195.57 323.91c5.2109-1.4219 8.9961-5.2109 11.84-7.5781 2.8398-2.8398 4.7344-5.2109 7.5781-7.1055 5.2109-4.2617 11.84-7.5781 17.996-8.9961 6.1562-1.8945 12.312-1.8945 17.051-1.4219 2.3672 0.47266 3.7891 0.47266 5.2109 0.94531 1.4219 0.47266 1.8945 0.47266 1.8945 0.47266s-0.47266-0.47266-1.4219-0.94531c-0.94531-0.47266-2.8398-1.4219-4.7344-2.3672-4.2617-1.8945-10.418-3.7891-18.469-4.2617-7.5781-0.47266-16.574 1.4219-24.625 5.6836-3.7891 1.8945-7.5781 5.2109-10.418 7.5781-2.8398 2.3672-4.7344 3.3164-5.6836 3.7891-2.3672 0.47266-5.6836-0.47266-8.5234-1.4219-2.8398-1.4219-5.2109-2.3672-7.1055-2.8398-3.7891-1.4219-5.2109 0-5.2109 0-0.003906 0-1.4258 0.47266-0.47656 4.2617 0.47266 1.8945 1.4219 4.7344 4.7344 8.0508 1.4219 1.8945 3.7891 3.7891 7.1055 5.2109 3.3125 1.4219 8.0508 2.3672 13.258 0.94531z"/>
  <path d="m260.92 314.91c4.2617-2.8398 7.1055-3.7891 7.1055-3.7891s-3.3164 0.47266-8.0508 1.8945c-5.2109 1.4219-12.312 3.7891-19.418 8.5234-7.5781 4.2617-14.68 11.367-20.363 18.469-6.1562 6.6289-11.367 13.262-16.574 17.523-10.418 8.5234-16.574 9.4727-19.891 11.367-3.7891 1.4219-4.2617 2.8398-4.2617 2.8398-0.003906 0-0.47656 1.8945 3.7852 4.2617 2.3672 0.94531 5.6836 2.3672 11.367 1.4219 5.2109-0.47266 11.84-3.3164 18.941-8.9961 7.1055-5.6836 12.312-13.734 17.051-21.312 4.7344-7.5781 9.4727-14.68 15.156-19.891 5.207-5.6836 10.891-9.4727 15.152-12.312z"/>
  <path d="m337.64 294.55c-9.9453 1.8945-18.469 5.2109-23.68 8.5234-5.6836 2.8398-8.9961 5.2109-8.9961 5.2109s3.3164-1.4219 9.4727-2.8398c6.1562-1.4219 14.68-2.8398 23.68-2.8398 8.9961 0 19.891 1.8945 29.363 5.6836 9.9453 3.7891 19.891 8.5234 30.309 9.9453 10.418 1.4219 18.941-0.94531 24.152-4.2617 5.6836-3.3164 8.5234-7.5781 9.4727-10.418 1.4219-2.8398 0.94531-4.7344 0.94531-5.6836-0.47266-0.94531-0.47266-1.4219-0.47266-1.4219h-1.4219c-0.94531 0-2.3672 0.94531-4.2617 1.8945-2.3672 0.94531-4.7344 2.3672-8.9961 3.3164-4.2617 0.94531-9.9453 2.3672-17.523 0.94531-8.0508-0.94531-17.996-4.2617-29.363-7.1055-10.895-2.8438-23.207-2.8438-32.68-0.94922z"/>
  <path d="m400.63 367.95c1.8945-1.4219 2.3672-3.3164 2.8398-3.7891v-1.4219l-0.94531-0.94531c-0.94531-0.47266-1.8945-0.94531-4.2617-0.94531-4.2617-0.94531-10.891-0.47266-24.152-4.2617-13.734-3.7891-31.73-13.734-45.465-22.73-7.1055-4.7344-13.262-8.9961-17.523-11.84-4.2617-2.8398-7.1055-4.7344-7.1055-4.7344s1.8945 2.3672 5.6836 6.6289c3.3164 4.2617 8.5234 9.9453 14.207 16.102 11.84 12.312 28.887 26.52 45.938 31.73 8.5234 2.3672 15.629 2.3672 20.836 1.4219 4.7383-1.4258 8.0547-3.3203 9.9492-5.2148z"/>
  <path d="m303.07 415.31c-0.47266 2.8398-0.94531 5.2109-1.4219 6.6289-0.94531 3.3164-0.94531 5.2109-0.94531 5.2109s0 0.47266 0.94531 0.94531c0.94531 0.47266 2.3672 0.94531 4.7344 0 2.3672-0.94531 6.1562-3.3164 8.9961-8.5234 2.8398-5.2109 3.3164-12.785 1.8945-21.312-1.4219-8.0508-4.7344-17.051-8.5234-25.102s-7.5781-16.102-10.418-23.68c-2.8398-7.1055-4.2617-14.207-4.7344-18.941-0.47266-5.2109-0.47266-8.0508-0.47266-8.0508s-3.3164 20.836-1.8945 28.887c0.94531 8.5234 3.3164 17.523 5.6836 26.047 2.3672 8.5234 4.2617 16.574 5.6836 23.68 0.47266 7.1055 0.47266 10.895 0.47266 14.211z"/>
  <path d="m260.92 347.11c-3.3164 5.2109-6.6289 11.367-9.4727 17.523-2.3672 5.6836-5.2109 11.367-7.1055 16.102-4.2617 8.9961-6.1562 13.262-6.6289 17.051-0.47266 3.3164 0.47266 4.7344 0.47266 4.7344s1.4219 1.4219 4.7344 0.94531c3.3164-0.94531 10.418-4.7344 15.156-16.102 2.3672-5.6836 4.2617-12.312 5.6836-18.469 1.4219-6.6289 2.3672-12.785 3.7891-18.469 2.8398-11.367 8.5234-18.469 8.5234-18.469s-1.8945 0.94531-5.2109 3.3164c-2.8398 2.3633-6.6289 6.625-9.9414 11.836z"/>
  <path d="m310.17 285.55c-2.8398 4.2617-4.2617 7.1055-4.2617 7.1055s2.3672-1.8945 6.1562-5.2109c3.7891-3.3164 9.4727-7.5781 16.102-11.367 6.6289-4.2617 14.207-8.5234 21.785-11.84s15.629-6.6289 22.73-10.418c7.1055-3.7891 12.312-7.5781 15.156-11.367 3.3164-3.7891 4.7344-6.6289 5.2109-8.9961 0.47266-2.3672 0.47266-3.7891 0-4.7344l-0.47266-0.94531s-0.47266-0.47266-1.4219-0.47266c-0.94531 0-2.3672 0-4.2617 0.94531-3.7891 1.4219-9.4727 5.2109-21.785 11.84-6.1562 3.3164-14.207 7.1055-21.785 12.312-7.5781 5.2109-14.68 11.367-20.363 17.051-5.2109 6.1523-9.4727 11.836-12.789 16.098z"/>
  <path d="m458.88 306.86c1.8945 2.3672 4.7344 4.2617 8.0508 6.1562 3.3164 1.4219 6.6289 2.3672 9.4727 3.3164 6.1562 1.4219 11.84 1.8945 15.629 5.6836 3.7891 3.3164 6.1562 8.0508 7.1055 11.367 0.47266 1.8945 0.47266 3.3164 0.47266 4.2617v1.4219s0.94531-3.7891 0.94531-5.6836c0-3.7891-1.4219-8.9961-5.2109-14.207-1.8945-2.3672-4.7344-4.7344-8.0508-6.1562-2.8398-1.4219-6.1562-2.3672-8.9961-3.3164-6.1562-1.8945-9.9453-4.2617-13.262-8.0508-3.3164-3.3164-4.7344-6.6289-5.6836-8.9961-0.94531-2.3672-1.4219-3.7891-1.4219-4.7344-0.47266-2.3672-0.47266-3.3164-0.47266-2.8398h-0.94531c-0.47266 0-1.4219 0.47266-2.8398 1.8945-0.94531 1.4219-1.8945 4.2617-0.94531 8.0508 0.46875 2.832 1.8906 7.0938 6.1523 11.832z"/>
  <path d="m497.71 301.65c2.8398 6.1562 6.6289 10.891 8.5234 15.629 2.3672 4.7344 1.8945 9.4727 0.94531 13.262-0.94531 3.3164-1.4219 5.6836-1.4219 5.6836s3.7891-8.9961 4.2617-11.367c0.47266-2.3672 0.47266-5.6836-0.47266-8.5234-1.4219-6.1562-4.2617-11.84-6.1562-17.051-1.8945-5.6836-2.3672-11.367-2.8398-16.102-0.47266-9.9453 0-15.156-0.47266-17.996s-1.4219-3.3164-1.4219-3.3164-0.94531-0.47266-2.8398 2.3672c-1.4219 2.3672-4.7344 8.0508-3.7891 19.418 1.4219 5.6836 2.8438 12.312 5.6836 17.996z"/>
  <path d="m446.57 333.38c1.8945 1.8945 4.7344 3.7891 9.4727 4.7344 2.3672 0.47266 4.7344 0.47266 7.1055 0.47266 2.3672-0.47266 4.7344-0.94531 6.6289-1.4219 4.2617-0.94531 8.0508-1.8945 11.84-1.4219 3.7891 0.47266 12.785 4.7344 12.785 4.7344s-0.94531-1.4219-2.8398-3.3164c-1.8945-1.8945-4.7344-4.2617-8.9961-5.6836-3.7891-1.8945-9.4727-2.3672-14.207-1.8945-4.7344 0.47266-8.0508 0.47266-11.367 0-6.1562-1.4219-8.9961-3.3164-10.891-3.7891-1.8945-0.47266-2.8398 0-2.8398 0s-0.94531 0.47266 0 2.8398c0.46484 1.4297 1.4141 3.3242 3.3086 4.7461z"/>
  <path d="m489.19 348.54c-2.3672 0-4.7344 0.47266-8.5234 2.3672-3.7891 1.8945-7.5781 4.7344-10.418 8.9961-1.4219 1.8945-2.3672 4.2617-3.3164 6.1562-0.94531 1.8945-1.4219 2.8398-1.8945 3.3164-0.94531 0.94531-2.8398 1.4219-4.2617 1.4219-1.4219 0-2.8398 0-4.2617 0.47266-1.8945 0.47266-2.3672 1.4219-2.3672 1.4219s-0.47266 0.94531 0.94531 2.8398c0.94531 0.94531 1.8945 1.8945 4.2617 2.8398 1.4219 0.47266 2.8398 0.47266 4.7344 0.47266 1.8945 0 4.2617-0.94531 6.6289-2.8398 2.3672-1.8945 3.3164-4.7344 3.7891-6.6289 0.47266-1.8945 0.94531-3.7891 1.8945-5.2109 1.4219-3.3164 3.7891-6.6289 6.1562-8.9961 2.8398-2.3672 5.6836-3.7891 7.5781-4.7344 2.3672-0.94531 3.7891-1.4219 3.7891-1.4219s-1.8945-0.47266-4.7344-0.47266z"/>
  <path d="m492.5 362.74c-2.3672 3.7891-4.2617 8.9961-5.2109 13.734-0.94531 4.7344-1.8945 9.4727-3.3164 12.785-2.8398 6.6289-5.2109 8.5234-6.6289 10.418-1.4219 1.4219-1.4219 2.3672-1.4219 2.3672s0 0.94531 2.8398 0.94531c1.4219 0 3.3164-0.47266 5.6836-2.3672 2.3672-1.8945 4.7344-4.7344 6.6289-8.9961 1.8945-4.7344 2.3672-9.4727 2.8398-14.68 0.47266-4.7344 0.94531-9.4727 2.3672-13.262 1.4219-4.2617 2.8398-7.5781 4.2617-9.9453 1.4219-2.3672 2.3672-3.7891 2.3672-3.7891 0.007813 0-8.043 8.5273-10.41 12.789z"/>
  <path d="m521.39 337.64c-1.8945 2.8398-3.3164 4.7344-3.3164 4.7344l4.2617-4.2617c2.8398-2.3672 6.6289-5.2109 11.367-8.0508 4.7344-2.3672 10.418-4.2617 16.574-5.2109 5.6836-0.94531 12.312-1.4219 17.996-3.7891 5.6836-2.3672 9.4727-5.6836 11.367-8.9961 1.8945-3.3164 2.3672-5.6836 2.3672-7.5781-0.47266-3.3164-1.8945-3.3164-1.8945-3.3164s-0.94531 0.47266-2.3672 2.3672c-0.94531 0.94531-1.8945 2.3672-3.7891 4.2617s-4.7344 3.7891-8.9961 5.2109c-4.2617 1.8945-10.418 2.8398-16.574 4.7344-6.6289 1.8945-12.312 5.2109-17.051 8.5234-4.2617 4.2695-7.5781 8.0586-9.9453 11.371z"/>
  <path d="m577.75 341.43c-2.3672 0.47266-5.2109 2.3672-12.785 4.2617-7.5781 1.8945-18.469 1.4219-27.469 0.94531-8.9961-0.94531-16.102-1.8945-16.102-1.8945s6.1562 2.8398 15.156 5.6836c8.5234 2.8398 20.363 5.2109 29.836 3.3164 4.7344-0.94531 8.0508-2.8398 10.418-4.7344 2.3672-1.8945 3.3164-3.7891 3.7891-4.7344 0.94531-2.3672 0-3.3164 0-3.3164s-0.94922-0.47266-2.8438 0.47266z"/>
  <path d="m527.07 361.32c-3.3164-2.8398-5.6836-5.6836-7.1055-8.0508-1.4219-2.3672-2.3672-3.7891-2.3672-3.7891s0 1.8945 0.94531 4.2617c0.94531 2.8398 2.8398 6.1562 5.2109 9.9453 5.2109 7.5781 13.262 14.68 17.996 20.836 2.3672 2.8398 3.3164 4.7344 4.2617 6.6289 0.47266 1.4219 0.94531 2.8398 0.94531 3.7891 0.47266 1.8945 0.94531 2.8398 0.94531 2.8398s0.94531 0.94531 2.8398-0.94531c0.94531-0.94531 2.3672-2.8398 1.8945-6.1562 0-3.3164-1.4219-7.1055-4.2617-10.418-5.2031-7.5742-14.676-13.258-21.305-18.941z"/>
  <path d="m512.87 369.37c-1.4219-6.1562-0.94531-10.891-0.94531-10.891s-0.47266 0.94531-1.4219 2.8398c-0.94531 1.8945-1.4219 4.7344-1.8945 8.0508-0.47266 6.6289 0.47266 15.156 0.47266 20.363 0.47266 5.6836 0.47266 8.0508 0.94531 9.4727 0.47266 1.8945 1.4219 2.3672 1.4219 2.3672s0.94531 0.47266 2.3672-0.94531c1.4219-1.4219 3.7891-4.7344 3.3164-11.367 0-6.6289-2.8438-13.734-4.2617-19.891z"/>
  <path d="m529.91 307.33c2.8398-3.7891 6.1562-7.5781 8.0508-10.891 2.3672-3.3164 3.7891-6.6289 4.2617-8.9961 0.47266-2.3672 0.47266-4.2617 0-5.6836-0.47266-2.3672-1.8945-2.3672-1.8945-2.3672s-0.94531 0-2.3672 1.8945c-1.4219 1.8945-2.8398 4.7344-7.5781 11.367-2.3672 3.3164-4.7344 7.1055-7.1055 11.367-2.3672 4.2617-4.2617 8.9961-5.2109 13.262-2.3672 8.5234-2.3672 15.156-2.3672 15.156s2.3672-6.1562 6.1562-13.734c2.8477-3.7969 5.2148-7.5859 8.0547-11.375z"/>
  <path d="m373.63 491.08s3.3164-4.2617 4.7344-6.1562c2.3672-4.2617 4.2617-11.367 2.8398-19.418-0.46875-4.2617-2.3633-8.5234-5.207-12.312-2.3672-3.7891-5.6836-6.6289-8.0508-9.9453-2.8398-2.8398-5.2109-5.6836-6.6289-8.5234-1.4219-2.8398-2.8398-6.1562-3.3164-8.9961-1.4219-5.6836-0.94531-10.418-0.94531-13.734 0.47266-3.3164 0.94531-5.2109 1.4219-6.6289 0.94531-2.8398 1.4219-3.7891 1.4219-3.7891s0-0.47266-0.94531-0.47266c-0.47266-0.47266-1.8945-0.47266-4.2617 0.47266-2.3672 0.94531-4.7344 3.7891-6.6289 8.5234-1.4219 4.2617-2.8398 10.418-0.94531 18.469 0.94531 3.7891 2.8398 8.0508 5.2109 11.84 2.3672 3.7891 5.6836 7.1055 8.9961 9.9453 6.6289 5.2109 12.312 9.9453 14.207 16.574 2.3594 6.1562-1.9023 24.152-1.9023 24.152z"/>
  <path d="m394.47 482.08c1.8945-2.3672 3.7891-6.1562 5.2109-9.9453 2.3672-7.5781 2.3672-16.102 4.2617-23.68 1.4219-7.5781 4.2617-14.68 7.1055-20.363 5.6836-11.367 9.9453-17.051 10.891-20.363 1.4219-3.3164 0.47266-4.7344 0.47266-4.7344s-0.94531-0.94531-4.7344 0.47266c-1.8945 0.94531-4.2617 2.3672-7.1055 5.2109-2.8398 2.8398-6.6289 7.5781-9.9453 14.207-3.3164 6.6289-5.6836 15.156-6.6289 23.68-0.94531 8.9961 0.47266 17.051-0.47266 23.68-0.47266 6.6289-4.2617 12.312-7.1055 15.629-2.8398 3.3164-5.2109 5.2109-5.2109 5.2109 0-0.003907 11.367-6.1602 13.262-9.0039z"/>
  <path d="m351.85 465.51c-2.8398-1.8945-5.6836-3.3164-8.0508-4.7344-5.6836-2.3672-9.9453-4.7344-12.785-7.5781-6.1562-5.6836-8.0508-9.4727-9.9453-11.367-1.8945-1.8945-3.3164-1.8945-3.3164-1.8945s-1.4219 0-1.8945 3.3164c-0.47266 1.4219-0.47266 3.7891 0.47266 7.1055 0.94531 3.3164 3.3164 7.1055 7.5781 11.367 2.3672 1.8945 5.2109 3.7891 8.0508 4.7344 2.8398 1.4219 5.6836 1.8945 8.5234 2.8398 2.8398 0.94531 5.2109 1.4219 7.5781 2.3672 2.3672 0.94531 4.7344 2.3672 6.6289 3.7891 3.7891 2.8398 7.1055 6.6289 8.9961 8.9961 1.8945 2.8398 2.8398 4.7344 2.8398 4.7344s0-1.8945-0.94531-5.2109-2.8398-8.0508-6.6289-12.312c-2.3633-1.8906-4.7344-4.2578-7.1016-6.1523z"/>
  <path d="m317.75 514.29c3.7891-0.94531 6.6289-3.3164 8.5234-5.2109 1.8945-1.8945 3.3164-3.3164 5.2109-5.2109 3.7891-2.8398 8.5234-5.2109 12.785-6.1562 4.7344-0.94531 8.9961-0.94531 11.84-0.47266 3.3164 0.47266 4.7344 0.94531 4.7344 0.94531s-1.4219-1.4219-4.2617-2.8398c-2.8398-1.4219-7.5781-2.8398-12.785-3.3164-5.2109-0.47266-11.84 0.94531-17.523 3.7891-2.8398 1.4219-5.6836 3.3164-7.5781 5.2109-1.8945 1.4219-3.3164 2.3672-4.2617 2.3672-1.4219 0.47266-4.2617-0.47266-6.1562-1.4219-1.8945-0.94531-3.7891-1.8945-4.7344-2.3672-2.3672-0.94531-3.7891 0-3.7891 0s-0.94531 0.94531-0.47266 3.7891c0.47266 1.4219 0.94531 3.3164 3.3164 5.6836 0.94531 1.4219 2.8398 2.8398 5.2109 3.7891 2.8398 1.4219 6.1523 2.3711 9.9414 1.4219z"/>
  <path d="m364.16 509.08c3.3164-1.8945 5.2109-2.8398 5.2109-2.8398s-2.3672 0-5.6836 0.94531c-3.7891 0.94531-8.5234 2.8398-13.734 5.6836-5.2109 2.8398-10.418 7.5781-14.68 12.785-4.2617 4.7344-8.5234 9.4727-11.84 12.312-7.5781 5.6836-11.84 6.6289-14.207 7.5781-3.3164 0.94922-4.2617 1.8945-4.2617 2.3672 0 0-0.47266 1.4219 2.3672 3.3164 1.4219 0.94531 4.2617 1.8945 8.0508 1.4219 3.7891-0.47266 8.5234-1.8945 13.734-6.1562 5.2109-3.7891 8.9961-9.4727 12.312-14.68 3.3164-5.2109 7.1055-9.9453 11.367-13.734 3.7891-4.2656 8.0508-7.1055 11.363-9z"/>
  <path d="m484.45 501.97c-1.4219 0.47266-3.7891 1.4219-6.6289 2.3672-3.3164 0.47266-7.5781 1.4219-13.734 0.47266-6.1602-0.94531-13.734-3.7852-21.785-5.6797-8.5234-1.8945-17.523-2.3672-25.102-1.4219-7.5781 0.94531-14.207 3.3164-18.469 5.2109s-6.6289 3.7891-6.6289 3.7891 2.8398-0.94531 7.1055-1.8945c4.7344-0.94531 10.891-1.8945 17.996-1.4219 7.1055 0.47266 14.68 1.8945 22.258 4.7344 7.1055 2.8398 15.156 6.1562 22.73 7.5781 8.0508 1.4219 14.207-0.47266 18.469-2.8398 4.2617-2.3672 6.1562-5.2109 7.1055-7.1055 1.8945-4.2617 0-4.7344 0.47266-4.7344 0.47266 0-0.94922-0.47266-3.7891 0.94531z"/>
  <path d="m463.14 545.07c-0.47266-0.47266-1.4219-0.47266-2.8398-0.94531-2.8398-0.47266-7.5781-0.47266-17.051-3.3164-9.4727-2.8398-22.258-9.9453-31.73-17.051-4.7344-3.3164-8.9961-6.6289-12.312-8.5234-2.8398-2.3672-4.7344-3.7891-4.7344-3.7891s1.4219 1.8945 3.7891 4.7344c2.3672 2.8398 5.6836 7.1055 9.9453 11.367 8.0508 8.9961 19.891 19.418 32.203 23.207 6.1562 1.8945 10.891 1.8945 14.68 1.4219 3.7891-0.94531 6.1562-1.8945 7.5781-3.3164 1.4219-0.94531 1.8945-2.3672 1.8945-2.8398v-0.94531c0-0.003907-0.94922-0.003907-1.4219-0.003907z"/>
  <path d="m389.73 534.18c-1.8945-5.2109-2.8398-9.9453-3.3164-13.734-0.47266-3.7891 0-5.6836 0-5.6836s-2.3672 14.68-1.8945 20.363c0.94922 11.844 5.6836 25.578 7.1055 35.047 0.94531 4.7344 0.94531 8.0508 0.47266 9.9453-0.47266 1.8945-0.94531 3.7891-0.94531 4.7344-0.94922 2.3711-0.94922 3.793-0.94922 3.793s0.47266 1.4219 4.2617 0.94531c1.8945-0.47266 4.2617-1.8945 6.6289-5.6836 1.8945-3.7891 2.8398-8.9961 1.8945-15.156-2.3633-11.363-9.4688-24.148-13.258-34.57z"/>
  <path d="m363.21 531.81c-5.2109 7.5781-8.9961 17.523-12.312 23.68-3.3164 6.6289-4.7344 9.4727-4.7344 11.84-0.47266 2.3672 0.47266 3.3164 0.47266 3.3164s0.94531 0.94531 3.3164 0.47266c2.3672-0.47266 7.1055-3.3164 11.367-10.891 3.7891-8.0508 5.2109-18.469 7.5781-26.047 1.8945-8.0508 6.1562-12.785 6.1562-12.785s-1.4219 0.94531-3.7891 2.3672c-2.8438 1.418-5.2148 4.2578-8.0547 8.0469z"/>
  <path d="m408.68 478.29c-4.2617 4.2617-7.1055 8.0508-9.4727 10.891-1.8945 2.8398-3.3164 4.7344-3.3164 4.7344s1.8945-1.4219 4.2617-3.7891c2.8398-2.3672 7.1055-5.2109 11.84-8.0508 4.7344-2.8398 10.418-5.6836 15.629-8.0508 5.2109-2.3672 11.367-4.2617 16.102-6.6289 10.418-5.2109 14.207-10.891 14.68-14.207 0.47266-1.4219 0.47266-2.8398 0-3.3164 0-0.47266-0.47266-0.94531-0.47266-0.94531s-0.94531-0.47266-3.7891 0.47266c-2.8398 0.94531-6.6289 3.3164-15.629 8.0508-4.7344 2.3672-10.418 4.7344-15.629 8.5234-4.7344 3.793-9.9414 8.0547-14.203 12.316z"/>
  <path d="m290.76 307.8c0 6.2773-4.0312 11.367-9 11.367s-8.9961-5.0898-8.9961-11.367c0-6.2773 4.0273-11.363 8.9961-11.363s9 5.0859 9 11.363"/>
  <path d="m386.89 502.92c0 3.3984-2.7578 6.1562-6.1562 6.1562-3.4023 0-6.1562-2.7578-6.1562-6.1562 0-3.4023 2.7539-6.1562 6.1562-6.1562 3.3984 0 6.1562 2.7539 6.1562 6.1562"/>
  <path d="m513.81 343.32c0 6.9453-10.418 6.9453-10.418 0 0-6.9453 10.418-6.9453 10.418 0"/>
 </g>
</svg>
