<?xml version="1.0" encoding="UTF-8"?>
<svg width="752pt" height="752pt" version="1.1" viewBox="0 0 752 752" xmlns="http://www.w3.org/2000/svg">
 <path d="m531.39 553.59h-73.996v-61.641c46.469-10.211 81.398-51.648 81.398-101.15 0-36.184-18.5-69.113-48.766-87.91 7.6211-11.098 11.766-24.195 11.766-37.887 0-36.703-29.895-66.598-66.598-66.598-11.914 0-23.012 3.1836-32.707 8.6562-9.1758-30.93-37.812-53.055-70.891-53.055-40.773 0-73.996 33.227-73.996 73.996 0 12.137 2.9609 23.977 8.582 34.555-32.855 21.828-52.98 58.902-52.98 98.637 0 55.055 37.812 101.3 88.797 114.47v77.918l-81.395 0.007812c-12.211 0-22.199 9.9883-22.199 22.199 0 12.211 9.9883 22.199 22.199 22.199h310.79c12.211 0 22.199-9.9883 22.199-22.199 0-12.211-9.9883-22.199-22.199-22.199zm-96.195-340.39c28.562 0 51.797 23.234 51.797 51.797 0 13.023-4.8828 25.453-13.617 35-1.6289 1.7031-2.293 4.0703-1.8516 6.3633 0.37109 2.293 1.8516 4.2188 3.9219 5.2539 29.969 15.168 48.543 45.508 48.543 79.176 0 48.984-39.809 88.797-88.797 88.797-48.984 0-88.797-39.809-88.797-88.797 0-33.668 18.574-64.008 48.543-79.176 2.0703-1.0352 3.5508-2.9609 3.9219-5.2539 0.44531-2.293-0.22266-4.6602-1.8516-6.3633-8.7305-9.5469-13.617-21.977-13.617-35 0-28.562 23.234-51.797 51.797-51.797zm7.3984 280.82v59.566h-14.801v-59.566c2.4414 0.14844 4.8828 0.37109 7.3984 0.37109 2.5156 0 4.957-0.22266 7.3984-0.37109zm-29.598-2.0703v61.641h-51.797v-77.844c3.5508-0.88672 7.0312-1.9961 10.508-3.2578 11.988 9.3242 25.973 16.059 41.289 19.461zm-184.99-130.75c0-36.926 19.906-71.332 51.945-89.758 1.7773-1.0352 3.0352-2.7383 3.4766-4.7344 0.51953-1.9961 0.074218-4.1445-1.0352-5.8477-6.5117-9.6953-9.9883-21.09-9.9883-32.855 0-32.633 26.566-59.199 59.199-59.199 28.34 0 52.613 20.273 58.012 47.801-12.875 12.137-21.016 29.305-21.016 48.395 0 13.688 4.1445 26.785 11.766 37.887-30.266 18.797-48.766 51.723-48.766 87.91 0 27.082 10.582 51.723 27.676 70.223-8.9531 2.4414-18.203 3.7734-27.676 3.7734-57.125 0-103.6-46.469-103.6-103.6zm118.39 117.36v75.031h-29.598v-75.031c4.8828 0.59375 9.7695 1.0352 14.801 1.0352s9.9141-0.44531 14.801-1.0352zm184.99 104.63-310.79-0.003906c-4.0703 0-7.3984-3.3281-7.3984-7.3984 0-4.0703 3.3281-7.3984 7.3984-7.3984h310.79c4.0703 0 7.3984 3.3281 7.3984 7.3984 0 4.0703-3.3281 7.3984-7.3984 7.3984z"/>
</svg>
